Coordinates
version=1
nRows=9
nColumns=63
inDegrees=yes

Units are S.I. units (second, meters, Newtons, ...)
If the header above contains a line with 'inDegrees', this indicates whether rotational values are in degrees (yes) or radians (no).

endheader
time	pelvis_tilt	pelvis_list	pelvis_rotation	pelvis_tx	pelvis_ty	pelvis_tz	hip_flexion_r	hip_adduction_r	hip_rotation_r	knee_angle_r	knee_angle_r_beta	ankle_angle_r	subtalar_angle_r	mtp_angle_r	hip_flexion_l	hip_adduction_l	hip_rotation_l	knee_angle_l	knee_angle_l_beta	ankle_angle_l	subtalar_angle_l	mtp_angle_l	L5_S1_Flex_Ext	L5_S1_Lat_Bending	L5_S1_axial_rotation	L4_L5_Flex_Ext	L4_L5_Lat_Bending	L4_L5_axial_rotation	L3_L4_Flex_Ext	L3_L4_Lat_Bending	L3_L4_axial_rotation	L2_L3_Flex_Ext	L2_L3_Lat_Bending	L2_L3_axial_rotation	L1_L2_Flex_Ext	L1_L2_Lat_Bending	L1_L2_axial_rotation	L1_T12_Flex_Ext	L1_T12_Lat_Bending	L1_T12_axial_rotation	Abs_r3	Abs_r2	Abs_r1	Abs_t1	Abs_t2	neck_flexion	neck_bending	neck_rotation	arm_flex_r	arm_add_r	arm_rot_r	elbow_flex_r	pro_sup_r	wrist_flex_r	wrist_dev_r	arm_flex_l	arm_add_l	arm_rot_l	elbow_flex_l	pro_sup_l	wrist_flex_l	wrist_dev_l
      3.52272727	     -6.45718924	    -12.37155061	    105.79486541	      0.12012145	      0.47511208	      0.82746212	     27.47567238	     -4.35487372	     -9.13108566	     32.24874941	      0.56284686	     45.43790895	      3.58255700	      0.00000000	     23.29418186	     -0.56421299	    -13.81457292	     23.97958026	      0.41852263	     38.25238638	     18.97234252	      0.00000000	     -0.90798003	     -2.25689310	      3.58550062	     -1.68620971	     -3.00166782	      3.80959441	     -1.49172039	     -5.48740987	      3.80959441	     -1.03773037	     -5.48740987	      3.13731304	     -0.84315025	     -4.60225640	      2.91321926	     -0.51881979	     -3.49592740	      2.68912547	     -6.48561053	    -25.53042607	     19.94147881	      0.00000000	      0.00000000	    -25.99406849	      3.29429357	     21.89107940	    -14.51499757	    -13.32166955	     20.64939003	    118.60324629	     83.20156549	     -5.26600028	      3.92880419	    -29.01416232	    -26.53807537	      8.96581205	    132.85753547	     88.74524987	     -7.37505422	      2.91827689
      3.54545455	     -6.22275455	    -13.07629019	    106.60880122	      0.11875987	      0.47334462	      0.83159576	     28.35884743	     -4.62124360	     -9.43084376	     32.18007291	      0.56164823	     45.57032695	      3.43726526	      0.00000000	     24.39200098	     -0.20022953	    -12.99824383	     23.99945444	      0.41886950	     38.21088944	     18.97491519	      0.00000000	     -0.95260122	     -2.19987417	      3.51470848	     -1.76907573	     -2.92583264	      3.73437776	     -1.56502855	     -5.34877405	      3.73437776	     -1.08872794	     -5.34877405	      3.07536992	     -0.88458550	     -4.48598340	      2.85570064	     -0.54431634	     -3.40760509	      2.63603136	     -6.80433527	    -24.88541656	     19.54775414	      0.00000000	      0.00000000	    -25.63701333	      3.06485499	     18.15487089	    -15.86205829	    -13.65663535	     17.73233731	    116.17076321	     87.10426119	     -5.32563171	      2.68558414	    -28.66843228	    -27.26992761	      8.86123648	    131.30936459	     88.97675455	     -7.51119805	      4.65677192
      3.56818182	     -5.83805638	    -13.47549345	    107.21955542	      0.11718634	      0.47140669	      0.83617908	     29.10759382	     -4.68370735	     -9.77208320	     32.31084495	      0.56393063	     45.68714347	      3.35568013	      0.00000000	     25.42282808	     -0.13989974	    -12.32991014	     24.39944888	      0.42585072	     38.43414288	     18.98615041	      0.00000000	     -1.01646881	     -2.09246596	      3.43421406	     -1.88768423	     -2.78297973	      3.64885243	     -1.66995661	     -5.08762174	      3.64885243	     -1.16172220	     -5.08762174	      3.00493730	     -0.94389294	     -4.26695659	      2.79029892	     -0.58081028	     -3.24122977	      2.57566054	     -7.26053506	    -23.67039344	     19.10006832	      0.00000000	      0.00000000	    -25.59433503	      3.38113257	     15.44993998	    -17.27949572	    -13.45866411	     13.98159825	    114.00644202	     88.40221957	     -2.60133538	      2.31234936	    -27.94306229	    -27.72384824	      9.04055778	    130.01358192	     89.15344309	     -7.71749600	      6.93758097
      3.59090909	     -5.46475026	    -13.65460766	    107.67147805	      0.11526410	      0.46950586	      0.84091687	     29.72762023	     -4.74942504	    -10.19010552	     32.63862295	      0.56965143	     45.73640362	      3.25873504	      0.00000000	     26.33632847	     -0.15895340	    -11.79975217	     24.99006090	      0.43615884	     38.82114231	     18.98876314	      0.00000000	     -1.09967233	     -1.95217649	      3.32055403	     -2.04220148	     -2.59639473	      3.52808866	     -1.80665167	     -4.74652192	      3.52808866	     -1.25681550	     -4.74652192	      2.90548478	     -1.02115572	     -3.98087830	      2.69795015	     -0.62835277	     -3.02392138	      2.49041552	     -7.85484947	    -22.08341088	     18.46792535	      0.00000000	      0.00000000	    -25.57906631	      4.32767245	     13.79073440	    -18.54264875	    -12.65830627	      9.13636994	    112.42133728	     88.75619484	      3.83610126	      4.59592811	    -27.23061920	    -27.89286778	      9.12132084	    128.90622977	     89.28465038	     -7.91270766	      8.67299345
      3.61363636	     -4.96984267	    -13.68317734	    108.04575730	      0.11262731	      0.46774211	      0.84558495	     30.26872791	     -4.72018142	    -10.69859218	     33.10046921	      0.57771217	     45.68607854	      2.97605347	      0.00000000	     27.25747633	     -0.31380490	    -11.22014655	     25.76673657	      0.44971439	     39.37694613	     18.96717077	      0.00000000	     -1.17687180	     -1.76941199	      3.22648946	     -2.18556862	     -2.35331794	      3.42814506	     -1.93348268	     -4.30214831	      3.42814506	     -1.34504678	     -4.30214831	      2.82317828	     -1.09284315	     -3.60818492	      2.62152269	     -0.67246455	     -2.74081917	      2.41986710	     -8.40627757	    -20.01594229	     17.94476645	      0.00000000	      0.00000000	    -25.31750715	      5.47471242	     12.13004115	    -19.73509366	    -11.57332628	      3.82633849	    111.52782159	     88.87930585	      9.13648961	      7.41289163	    -26.40085222	    -27.76108959	      9.34103836	    128.17409008	     89.37158420	     -8.27472795	      9.93369731
      3.63636364	     -4.74473448	    -13.84991823	    108.24577741	      0.10985827	      0.46591608	      0.84981676	     31.03654983	     -4.99301863	    -11.01137270	     33.92532310	      0.59210859	     45.64748779	      2.60129486	      0.00000000	     28.27865150	     -0.22804955	    -10.87492176	     26.67822670	      0.46562289	     39.89139526	     18.93347591	      0.00000000	     -1.22914190	     -1.61610511	      3.13664463	     -2.28263942	     -2.14941980	      3.33268492	     -2.01935723	     -3.92939797	      3.33268492	     -1.40478628	     -3.92939797	      2.74456405	     -1.14138117	     -3.29556155	      2.54852376	     -0.70233168	     -2.50334682	      2.35248347	     -8.77963768	    -18.28170427	     17.44507642	      0.00000000	      0.00000000	    -24.33184647	      6.25606758	     10.23059724	    -20.84167876	    -10.24023447	     -1.24621335	    111.22369594	     88.83098971	     10.62726547	      9.00702360	    -25.53436956	    -27.59725255	      9.37406326	    127.97903362	     89.41568772	     -8.49269644	      9.85031071
      3.65909091	     -4.05565075	    -13.51282830	    108.37897691	      0.10659946	      0.46492819	      0.85335141	     31.13187138	     -4.66491259	    -11.67387396	     34.27844606	      0.59827175	     45.42680111	      2.47476875	      0.00000000	     28.89067313	     -0.74067332	    -10.44300764	     27.61758904	      0.48201786	     40.55556978	     18.89446235	      0.00000000	     -1.28959183	     -1.37894425	      3.10867729	     -2.39490100	     -1.83399585	      3.30296962	     -2.11867042	     -3.35276505	      3.30296962	     -1.47387451	     -3.35276505	      2.72009263	     -1.19751498	     -2.81194311	      2.52580029	     -0.73687277	     -2.13598464	      2.33150796	     -9.21142551	    -15.59889313	     17.28953046	      0.00000000	      0.00000000	    -23.00584317	      6.11523539	      8.04419296	    -21.84303461	     -9.01602599	     -6.76333077	    111.42008618	     88.45041732	     11.58561576	     11.38544657	    -24.27254586	    -26.77767357	      9.88307006	    127.89657934	     89.43587748	     -9.58802587	      9.18340415
      3.68181818	     -3.94139629	    -13.52671306	    108.13977968	      0.10421648	      0.46391101	      0.85583237	     31.59752545	     -4.76988911	    -11.65878323	     34.93195007	      0.60967754	     45.30425476	      2.27212650	      0.00000000	     29.44093635	     -0.79222417	    -10.53639379	     28.34984687	      0.49479817	     40.88099518	     18.83355545	      0.00000000	     -1.31321612	     -1.24664184	      3.08329397	     -2.43877365	     -1.65803365	      3.27599985	     -2.15748276	     -3.03108497	      3.27599985	     -1.50087470	     -3.03108497	      2.69788223	     -1.21945248	     -2.54215204	      2.50517635	     -0.75037169	     -1.93104821	      2.31247048	     -9.38017139	    -14.10226182	     17.14835609	      0.00000000	      0.00000000	    -21.36096689	      6.56108287	      5.98932149	    -22.58970935	     -8.10816382	    -10.35851641	    111.28674558	     87.77193660	      8.29808911	     11.87619144	    -23.06239981	    -26.08286667	      9.78411339	    128.34021588	     89.42632691	    -10.08281474	      8.75105657
      3.70454545	     -3.83077249	    -13.35798899	    107.78166282	      0.10217926	      0.46381430	      0.85739581	     31.72619733	     -4.68994287	    -11.48939216	     35.29459242	      0.61600685	     45.10573129	      2.02337287	      0.00000000	     29.64398335	     -0.97910057	    -10.79342336	     28.93569973	      0.50502323	     40.99212649	     18.78260456	      0.00000000	     -1.34296742	     -1.12452826	      3.06162479	     -2.49402480	     -1.49562258	      3.25297634	     -2.20636118	     -2.73417801	      3.25297634	     -1.53487747	     -2.73417801	      2.67892169	     -1.24707955	     -2.29313802	      2.48757014	     -0.76737159	     -1.74189427	      2.29621859	     -9.59268201	    -12.72088856	     17.02783858	      0.00000000	      0.00000000	    -19.76836528	      7.66172480	      4.12974449	    -22.98178510	     -8.05020773	    -12.22935142	    110.53298239	     87.22032018	      2.07557842	     10.86956613	    -21.77452823	    -25.23597040	      9.59821480	    128.85632219	     89.40478595	    -10.67111915	      9.30001077
